<?xml version="1.0" encoding="UTF-8"?><svg id="a" xmlns="http://www.w3.org/2000/svg" width="487.09" height="102.66" viewBox="0 0 487.09 102.66"><path d="m270.46,48.52l-13.32-12.07c-2.84-2.58-7.39-.56-7.39,3.28v27.17c0,1.91,1.55,3.45,3.45,3.45h0c1.91,0,3.45-1.55,3.45-3.45v-21.37l10.92,9.68c1.56,1.39,3.91,1.4,5.49.03l11.19-9.71v21.69c0,1.04.53,2.02,1.43,2.55,2.7,1.59,5.48-.31,5.48-2.87v-27.17c0-3.84-4.55-5.85-7.39-3.28l-13.32,12.07Z" fill="#fff"/><path d="m185.58,51.78c-2.02-2.23-4.94-3.62-8.2-3.62h-17.84c-1.77,0-3.21-1.44-3.21-3.21v-.19c0-1.77,1.44-3.21,3.21-3.21h24.09c1.44,0,2.61-1.17,2.61-2.6v-1.06c0-1.44-1.17-2.6-2.61-2.6h-24.09c-5.23,0-9.47,4.23-9.47,9.45v.21c0,2,.63,3.85,1.69,5.37.35.54.77,1.02,1.23,1.46,1.69,1.65,3.98,2.64,6.55,2.64h17.7c2.32,0,4.43,1.56,4.89,3.83.64,3.1-1.76,5.84-4.76,5.84h-23.29c-1.44,0-2.61,1.17-2.61,2.6v1.04c0,1.44,1.17,2.6,2.61,2.6h22.95c5.63,0,10.64-4.04,11.36-9.61.42-3.21-.56-6.2-2.41-8.47-.13-.17-.25-.33-.42-.48Z" fill="#fff"/><path d="m392.83,53.58c.4,5.99,5.66,10.52,11.68,10.52h13.11c1.44,0,2.61,1.17,2.61,2.6v1.04c0,1.44-1.17,2.6-2.61,2.6h-13.01c-9.46,0-17.59-7.25-18.04-16.68-.48-10.07,7.56-18.38,17.54-18.38h13.5c1.44,0,2.61,1.17,2.61,2.6v1.04c0,1.44-1.17,2.6-2.61,2.6h-13.5c-6.49,0-11.72,5.48-11.28,12.05Z" fill="#fff"/><path d="m207.85,44.73v3.27h25.85c1.44,0,2.61,1.17,2.61,2.6v1.04c0,1.44-1.17,2.6-2.61,2.6h-25.85v6.62c0,1.78,1.46,3.23,3.23,3.23h23.01c1.44,0,2.61,1.17,2.61,2.6v1.04c0,1.44-1.17,2.6-2.61,2.6h-23.03c-5.23,0-9.47-4.23-9.47-9.45v-16.16c0-5.22,4.24-9.45,9.47-9.45h23.03c1.44,0,2.61,1.17,2.61,2.6v1.04c0,1.44-1.17,2.6-2.61,2.6h-23.03c-1.77,0-3.21,1.44-3.21,3.21Z" fill="#fff"/><path d="m347.39,44.73v3.27h25.85c1.44,0,2.61,1.17,2.61,2.6v1.04c0,1.44-1.17,2.6-2.61,2.6h-25.85v6.62c0,1.78,1.46,3.23,3.23,3.23h23.01c1.44,0,2.61,1.17,2.61,2.6v1.04c0,1.44-1.17,2.6-2.61,2.6h-23.03c-5.23,0-9.47-4.23-9.47-9.45v-16.16c0-5.22,4.24-9.45,9.47-9.45h23.03c1.44,0,2.61,1.17,2.61,2.6v1.04c0,1.44-1.17,2.6-2.61,2.6h-23.03c-1.77,0-3.21,1.44-3.21,3.21Z" fill="#fff"/><path d="m465.38,37.89v29.84c0,1.44-1.17,2.6-2.61,2.6h-1.05c-1.44,0-2.61-1.17-2.61-2.6v-13.48h-21.13v13.47c0,1.44-1.17,2.6-2.61,2.6h-1.05c-1.44,0-2.61-1.17-2.61-2.6v-29.84c0-1.44,1.17-2.6,2.61-2.6h1.05c1.44,0,2.61,1.17,2.61,2.6v10.12h21.13v-10.11c0-1.44,1.17-2.6,2.61-2.6h1.05c1.44,0,2.61,1.17,2.61,2.6Z" fill="#fff"/><path d="m333.46,37.89v1.05c0,1.44-1.17,2.6-2.61,2.6h-11.81v26.19c0,1.44-1.17,2.6-2.61,2.6h-1.05c-1.44,0-2.61-1.17-2.61-2.6v-26.19h-11.81c-1.44,0-2.61-1.17-2.61-2.6v-1.05c0-1.44,1.17-2.6,2.61-2.6h29.89c1.44,0,2.61,1.17,2.61,2.6Z" fill="#fff"/><path d="m47.41,29.1c2.91,3.57,3.52,8.21,2.06,12.2-.89,2.45-.36,5.18,1.3,7.18l.12.14c1.73,2.07,4.51,2.9,7.12,2.21,7.3-1.95,15.53,1.45,18.9,9.42,2.24,5.3,1.33,11.43-2.31,15.88-6.83,8.35-19.04,7.74-25.14-.27-3.73-4.9-4.19-11.26-1.72-16.47,1.15-2.44.77-5.33-.96-7.4l-.08-.09c-1.7-2.03-4.35-2.96-6.96-2.54-2.37.38-4.8.07-6.99-.88-1.83-.79-3.94-.51-5.46.78l-.33.28c-1.21,1.03-1.93,2.55-1.88,4.14.08,2.63-1.12,5.25-3.44,6.88-3.5,2.45-8.39,1.71-11-1.67-2.82-3.64-2.03-8.86,1.68-11.51,2.07-1.48,4.61-1.84,6.89-1.2,1.65.46,3.42.06,4.72-1.05h0c1.48-1.26,2.13-3.26,1.67-5.15-1.18-4.82.58-10.1,4.92-13.18,5.33-3.78,12.78-2.77,16.92,2.3Z" fill="#fff"/><path d="m92.9,66.88c-2.91-3.57-3.52-8.21-2.06-12.2.89-2.45.36-5.18-1.3-7.18l-.12-.14c-1.73-2.07-4.51-2.9-7.12-2.21-7.3,1.95-15.53-1.45-18.9-9.42-2.24-5.3-1.33-11.43,2.31-15.88,6.83-8.35,19.04-7.74,25.14.27,3.73,4.9,4.19,11.26,1.72,16.47-1.15,2.44-.77,5.33.96,7.4l.08.09c1.7,2.03,4.35,2.96,6.96,2.54,2.37-.38,4.8-.07,6.99.88,1.83.79,3.94.51,5.46-.78l.33-.28c1.21-1.03,1.93-2.55,1.88-4.14-.08-2.63,1.12-5.25,3.44-6.88,3.5-2.45,8.39-1.71,11,1.67,2.82,3.64,2.03,8.86-1.68,11.51-2.07,1.48-4.61,1.84-6.89,1.2-1.65-.46-3.42-.06-4.72,1.05h0c-1.48,1.26-2.13,3.26-1.67,5.15,1.18,4.82-.58,10.1-4.92,13.18-5.33,3.78-12.78,2.77-16.92-2.3Z" fill="#fff"/><path d="m477.95,39.41c0,2.32-1.82,4.15-4.2,4.15s-4.22-1.82-4.22-4.15,1.87-4.1,4.22-4.1,4.2,1.82,4.2,4.1Zm-7.37,0c0,1.82,1.35,3.27,3.2,3.27s3.12-1.45,3.12-3.25-1.32-3.3-3.15-3.3-3.17,1.47-3.17,3.27Zm2.52,2.15h-.95v-4.1c.38-.07.9-.13,1.57-.13.77,0,1.12.13,1.43.3.22.18.4.5.4.9,0,.45-.35.8-.85.95v.05c.4.15.62.45.75,1,.13.62.2.88.3,1.02h-1.02c-.12-.15-.2-.53-.32-1-.07-.45-.33-.65-.85-.65h-.45v1.65Zm.02-2.32h.45c.52,0,.95-.17.95-.6,0-.38-.27-.62-.88-.62-.25,0-.42.02-.53.05v1.17Z" fill="#fff"/></svg>