<?xml version="1.0" encoding="UTF-8"?><svg id="a" xmlns="http://www.w3.org/2000/svg" width="40" height="40" viewBox="0 0 40 40"><path d="M26.19,13.79h-12.5c-.93,0-1.68.75-1.68,1.68v8.63c0,.93.75,1.68,1.68,1.68h12.5c.93,0,1.68-.75,1.68-1.68v-8.63c0-.93-.75-1.68-1.68-1.68ZM27.05,24.11c0,.48-.39.86-.86.86h-12.5c-.48,0-.86-.39-.86-.86v-8.63c0-.48.39-.86.86-.86h12.5c.48,0,.86.39.86.86v8.63Z" fill="#46f9f0"/><path d="M31.97,8.3c-.16-.16-.42-.16-.58,0s-.16.42,0,.58c2.91,2.91,4.52,6.79,4.52,10.91s-1.61,8-4.52,10.91c-.16.16-.16.42,0,.58.08.08.18.12.29.12s.21-.04.29-.12c3.07-3.07,4.76-7.15,4.76-11.49s-1.69-8.42-4.76-11.49h0Z" fill="#46f9f0"/><path d="M29.21,11.06c-.16-.16-.42-.16-.58,0s-.16.42,0,.58c2.18,2.18,3.38,5.08,3.38,8.15s-1.2,5.98-3.38,8.15c-.16.16-.16.42,0,.58.08.08.18.12.29.12s.21-.04.29-.12c2.33-2.33,3.62-5.43,3.62-8.73s-1.28-6.4-3.62-8.73h0Z" fill="#46f9f0"/><path d="M11.24,11.06c-.16-.16-.42-.16-.58,0-2.33,2.33-3.62,5.43-3.62,8.73s1.28,6.4,3.62,8.73c.08.08.18.12.29.12s.21-.04.29-.12c.16-.16.16-.42,0-.58-2.18-2.18-3.38-5.08-3.38-8.15s1.2-5.98,3.38-8.15c.16-.16.16-.42,0-.58h0Z" fill="#46f9f0"/><path d="M3.96,19.79c0-4.12,1.61-8,4.52-10.91.16-.16.16-.42,0-.58s-.42-.16-.58,0c-3.07,3.07-4.76,7.15-4.76,11.49s1.69,8.42,4.76,11.49c.08.08.18.12.29.12s.21-.04.29-.12c.16-.16.16-.42,0-.58-2.91-2.91-4.52-6.79-4.52-10.91h0Z" fill="#46f9f0"/><path d="M23.11,19.23l-4.95-2.38c-.2-.09-.42-.08-.6.03s-.29.31-.29.53v4.76c0,.22.11.41.29.53.1.06.22.1.33.1.09,0,.19-.02.27-.06l4.95-2.38c.22-.11.35-.32.35-.57s-.14-.46-.35-.57h0ZM18.08,21.87v-4.15l4.32,2.07-4.32,2.07h0Z" fill="#46f9f0"/></svg>