<?xml version="1.0" encoding="UTF-8"?><svg id="a" xmlns="http://www.w3.org/2000/svg" width="40" height="40" viewBox="0 0 40 40"><path d="M34.89,21.4c-.16-.23-.39-.39-.66-.49.36-3.59-.66-7.14-2.86-10.01-2.3-3-5.63-4.9-9.41-5.4-2.63-.36-5.3.07-7.73,1.18-.16.07-.23.26-.16.43.07.16.26.23.43.16,1.35-.63,2.76-1.02,4.21-1.15-2.27,1.78-4.02,4.48-5,7.6-.46-.13-.92-.26-1.38-.39l-1.02-.36c-.82-.3-1.61-.66-2.37-1.02.59-.86,1.32-1.68,2.14-2.4.23.16.53.3.82.3.76,0,1.38-.63,1.38-1.38s-.63-1.38-1.38-1.38-1.38.63-1.38,1.38c0,.2.07.39.13.59-5.76,5.07-6.42,13.89-1.42,19.75,2.76,3.26,6.75,5,10.8,5,2.14,0,4.28-.49,6.29-1.48.16-.07.23-.3.16-.46s-.3-.23-.46-.16c-1.51.76-3.09,1.18-4.71,1.35.39-.26.76-.56,1.12-.89l.43-.39c1.65-1.68,2.93-3.92,3.69-6.42l.23.07c1.48.39,2.93.95,4.31,1.61.03.03.1.03.13.03h.07c-.69,1.05-1.55,1.97-2.5,2.8-.23-.2-.53-.3-.86-.3-.36,0-.72.13-.99.43-.26.3-.39.63-.39.99s.13.72.39.99.63.39.99.39c.76-.03,1.35-.63,1.38-1.38,0-.2-.03-.39-.13-.56,1.74-1.48,3.13-3.36,4.02-5.46.07-.16,0-.36-.16-.43-.16-.07-.36,0-.43.16-.3.69-.66,1.35-1.05,1.97-.03-.1-.07-.2-.16-.23-1.42-.69-2.9-1.25-4.44-1.68l-.23-.07c.43-1.55.66-3.16.66-4.84h6.22c0,.33-.03.66-.07.95-.23.03-.43.1-.63.23-.3.23-.49.53-.56.92-.07.36.03.72.23,1.05.2.33.53.49.92.56.07,0,.16.03.23.03.3,0,.56-.1.82-.26.3-.23.49-.53.56-.92.1-.36.03-.72-.2-1.02ZM11.92,7.67c.39,0,.72.33.72.72s-.33.72-.72.72c-.2,0-.39-.1-.53-.23,0-.02-.01-.04-.03-.07l-.03-.03c-.07-.1-.13-.26-.13-.39,0-.39.33-.72.72-.72ZM27.95,31.63c-.2,0-.36-.07-.53-.2-.13-.13-.2-.33-.23-.53-.03-.2.07-.36.2-.53.13-.13.33-.2.53-.23.2,0,.36.07.49.2,0,.03.03.1.07.13l.07.07c.07.1.1.23.1.33.03.43-.3.76-.69.76ZM20.15,30.02c.39,0,.72.33.72.72s-.33.72-.72.72-.72-.33-.72-.72.33-.72.72-.72ZM19.82,6.16v8.39c-1.84-.03-3.65-.23-5.43-.66,1.02-3.32,2.96-6.09,5.43-7.73ZM13.79,16.69c.13.13.2.33.23.53,0,.39-.3.69-.66.72h-.07c-.2,0-.36-.07-.53-.2-.13-.13-.2-.33-.23-.53,0-.2.07-.36.2-.53.2-.13.39-.23.56-.23h.07s.03,0,.03.03h.07c.13.03.23.1.33.2ZM9.75,28.31c-3.88-4.58-4.15-10.99-1.15-15.83.82.4,1.68.76,2.53,1.09l1.02.39c.46.16.92.3,1.42.43-.13.49-.23.95-.33,1.48-.33.03-.66.16-.89.39-.26.26-.39.63-.39.99s.13.72.43.99c.26.26.63.39,1.02.39h.03c.76-.03,1.35-.66,1.32-1.38,0-.36-.13-.72-.43-.99-.13-.13-.26-.23-.43-.3.1-.46.2-.95.33-1.42,1.84.43,3.72.66,5.63.69v3.98h-9.87c-.16-.59-.69-1.05-1.35-1.05-.76,0-1.38.63-1.38,1.38s.63,1.38,1.38,1.38c.66,0,1.18-.46,1.35-1.05h9.87v3.95c-.69.03-1.61.13-2.21.2-.2-.56-.69-.95-1.32-.95-.76,0-1.35.59-1.38,1.32-.23.07-.46.1-.69.16-.36-1.38-.59-2.76-.66-4.18,0-.2-.16-.33-.36-.33s-.33.16-.33.36c.07,1.45.3,2.9.69,4.31-1.45.39-2.86.89-4.21,1.51-.16.07-.23.26-.16.43.07.13.16.2.3.2.03,0,.1,0,.13-.03,1.32-.63,2.7-1.12,4.11-1.48.33,1.05.76,2.11,1.25,3.09l.36.69c.89,1.58,2.17,2.93,3.69,3.95-3.52-.3-6.88-1.94-9.31-4.77ZM9.29,19.52c0,.39-.33.72-.72.72s-.72-.33-.72-.72.33-.72.72-.72.72.33.72.72ZM15.57,24.52v-.07c0-.39.33-.72.72-.72s.72.33.72.72-.33.72-.72.72c-.33,0-.63-.23-.69-.53v-.07s-.03-.07-.03-.07ZM22.42,31.27l-.43.39c-.56.53-1.18.95-1.84,1.28-1.74-.99-3.19-2.44-4.18-4.18l-.36-.69c-.49-.92-.89-1.91-1.18-2.93.2-.07.43-.1.63-.13.23.46.69.82,1.25.82.69,0,1.25-.49,1.38-1.15.53-.07,1.48-.16,2.14-.2v4.94c-.59.16-1.05.69-1.05,1.35,0,.76.63,1.38,1.38,1.38s1.38-.63,1.38-1.38c0-.66-.46-1.18-1.05-1.35v-4.94c1.74,0,3.52.23,5.23.66l.2.03c-.72,2.37-1.94,4.51-3.49,6.09ZM26.1,24.52l-.23-.07c-1.78-.43-3.59-.63-5.4-.66v-3.95h1.81c.16.59.69,1.05,1.35,1.05s1.18-.46,1.35-1.05h1.78c-.03,1.61-.26,3.19-.66,4.67ZM22.91,19.52c0-.39.33-.72.72-.72s.69.3.72.69v.07c-.03.36-.33.69-.72.69s-.72-.33-.72-.72ZM24.98,19.19c-.16-.59-.69-1.05-1.35-1.05s-1.18.46-1.35,1.05h-1.81v-3.98c1.91-.07,3.79-.3,5.63-.69.43,1.51.63,3.09.66,4.67h-1.78ZM24.98,12.11c-.13-.13-.2-.33-.2-.53s.07-.36.2-.49.33-.2.49-.2c.39,0,.72.33.72.72,0,.2-.07.36-.2.49-.13.13-.33.2-.53.2s-.36-.07-.49-.2ZM27.42,19.19c-.03-1.65-.23-3.26-.66-4.84.49-.13.99-.26,1.45-.39.26.39.69.63,1.15.63.76,0,1.38-.63,1.38-1.38s-.63-1.38-1.38-1.38-1.38.63-1.38,1.38v.13c-.46.13-.95.26-1.45.39-.1-.33-.2-.66-.33-.95.07-.07.16-.1.23-.16.26-.26.39-.63.39-.99,0-.76-.63-1.38-1.38-1.38-.36,0-.72.13-.99.39-.26.26-.39.63-.39.99s.13.72.39.99c.26.26.63.39.99.39h.2c.1.3.2.59.3.89-1.78.39-3.62.63-5.43.66V6.25c.76.43,1.42.95,2.01,1.58-.16.23-.23.49-.23.79,0,.76.63,1.38,1.38,1.38s1.38-.63,1.38-1.38-.63-1.38-1.38-1.38c-.23,0-.46.07-.66.16-.46-.49-.99-.92-1.55-1.32.16,0,.3.03.46.03,3.52.46,6.71,2.3,8.92,5.17,1.78,2.3,2.73,5.04,2.8,7.9h-6.22ZM28.7,13.4c-.03-.07-.03-.13-.03-.2,0-.39.33-.72.72-.72s.72.33.72.72-.33.72-.72.72c-.3,0-.56-.16-.66-.43v-.03s-.03-.03-.03-.07ZM22.91,8.62c0-.39.33-.72.72-.72s.72.33.72.72-.33.72-.72.72-.72-.33-.72-.72ZM34.17,22.78c-.16.1-.36.16-.53.13-.2-.03-.36-.13-.46-.3-.1-.16-.16-.36-.13-.53.03-.2.13-.36.3-.46.07-.07.16-.1.26-.13.07.07.13.13.23.13h.03c.07,0,.16-.03.2-.07.1.07.2.13.26.23.13.13.16.33.13.53-.03.2-.13.36-.3.46Z" fill="#46f9f0"/></svg>