<?xml version="1.0" encoding="UTF-8"?><svg id="a" xmlns="http://www.w3.org/2000/svg" width="40" height="40" viewBox="0 0 40 40"><path d="M18.92,19.07c.25.31.3.71.18,1.05-.08.21-.03.45.11.62h.01c.15.19.39.26.61.2.63-.17,1.34.13,1.63.81.19.46.11.99-.2,1.37-.59.72-1.64.67-2.17-.02-.32-.42-.36-.97-.15-1.42.1-.21.07-.46-.08-.64h0c-.15-.18-.37-.26-.6-.23-.2.03-.41,0-.6-.08-.16-.07-.34-.04-.47.07l-.03.02c-.1.09-.17.22-.16.36,0,.23-.1.45-.3.59-.3.21-.72.15-.95-.14-.24-.31-.17-.76.14-.99.18-.13.4-.16.59-.1.14.04.29,0,.41-.09h0c.13-.11.18-.28.14-.44-.1-.41.05-.87.42-1.14.46-.33,1.1-.24,1.46.2Z" fill="#46f9f0"/><path d="M22.84,22.33c-.25-.31-.3-.71-.18-1.05.08-.21.03-.45-.11-.62h-.01c-.15-.19-.39-.26-.61-.2-.63.17-1.34-.13-1.63-.81-.19-.46-.11-.99.2-1.37.59-.72,1.64-.67,2.17.02.32.42.36.97.15,1.42-.1.21-.07.46.08.64h0c.15.18.37.26.6.23.2-.03.41,0,.6.08.16.07.34.04.47-.07l.03-.02c.1-.09.17-.22.16-.36,0-.23.1-.45.3-.59.3-.21.72-.15.95.14.24.31.17.76-.14.99-.18.13-.4.16-.59.1-.14-.04-.29,0-.41.09h0c-.13.11-.18.28-.14.44.1.41-.05.87-.42,1.14-.46.33-1.1.24-1.46-.2Z" fill="#46f9f0"/><path d="M31.55,9.21H9.85c-.16,0-.33.13-.33.33v21.74c0,.16.13.3.33.3h21.74c.16,0,.33-.13.33-.3V9.54c-.03-.2-.16-.33-.36-.33ZM31.16,30.85H10.24V9.93h20.88v20.91h.03Z" fill="#46f9f0"/><path d="M14.89,27.95h11.61c.96,0,1.75-.79,1.75-1.75v-11.61c0-.96-.79-1.75-1.75-1.75h-11.61c-.96,0-1.75.79-1.75,1.75v11.61c-.03.96.76,1.75,1.75,1.75ZM13.74,14.59c0-.63.49-1.12,1.12-1.12h11.65c.63,0,1.12.49,1.12,1.12v11.61c0,.63-.49,1.12-1.12,1.12h-11.61c-.63,0-1.12-.49-1.12-1.12v-11.61h-.03Z" fill="#46f9f0"/><path d="M14.27,6.01c0-.43-.36-.79-.79-.79s-.79.36-.79.79v2.14h1.55v-2.14h.03Z" fill="#46f9f0"/><path d="M21.52,6.01c0-.43-.36-.79-.79-.79s-.79.36-.79.79v2.14h1.58v-2.14Z" fill="#46f9f0"/><path d="M28.81,6.01c0-.43-.36-.79-.79-.79s-.79.36-.79.79v2.14h1.58v-2.14Z" fill="#46f9f0"/><path d="M5.52,27.58c0,.43.36.79.79.79h2.21v-1.58h-2.21c-.43,0-.79.36-.79.79Z" fill="#46f9f0"/><path d="M5.52,20.33c0,.43.36.79.79.79h2.21v-1.58h-2.21c-.43.03-.79.36-.79.79Z" fill="#46f9f0"/><path d="M5.52,13.07c0,.43.36.79.79.79h2.21v-1.58h-2.21c-.43.03-.79.36-.79.79Z" fill="#46f9f0"/><path d="M19.87,34.78c0,.43.36.79.79.79s.79-.36.79-.79v-2.18h-1.55v2.18h-.03Z" fill="#46f9f0"/><path d="M12.62,34.78c0,.43.36.79.79.79s.79-.36.79-.79v-2.18h-1.55v2.18h-.03Z" fill="#46f9f0"/><path d="M27.13,34.78c0,.43.36.79.79.79s.79-.36.79-.79v-2.18h-1.55v2.18h-.03Z" fill="#46f9f0"/><path d="M35.87,13.2c0-.43-.36-.79-.79-.79h-2.31v1.58h2.31c.43,0,.79-.36.79-.79Z" fill="#46f9f0"/><path d="M35.08,19.67h-2.31v1.55h2.31c.43,0,.79-.36.79-.79,0-.4-.36-.76-.79-.76Z" fill="#46f9f0"/><path d="M35.08,26.92h-2.31v1.55h2.31c.43,0,.79-.36.79-.79,0-.4-.36-.76-.79-.76Z" fill="#46f9f0"/></svg>