<?xml version="1.0" encoding="UTF-8"?><svg id="a" xmlns="http://www.w3.org/2000/svg" width="40" height="40" viewBox="0 0 40 40"><path d="M32.52,18.99c-.23-1.97-.89-3.81-1.96-5.46-1.02-1.57-2.41-2.93-4.01-3.93-.41-.25-.94-.13-1.2.28-.25.41-.13.94.28,1.2,2.88,1.79,4.76,4.75,5.16,8.11.71,6.06-3.64,11.57-9.7,12.28-.44.05-.87.08-1.3.08-5.53,0-10.32-4.15-10.98-9.77-.49-4.17,1.38-8.2,4.88-10.52.4-.27.51-.8.24-1.2-.27-.4-.8-.51-1.2-.24-1.94,1.29-3.5,3.08-4.5,5.19-1.03,2.17-1.43,4.58-1.15,6.98.2,1.72.73,3.34,1.58,4.83.82,1.44,1.89,2.69,3.2,3.72,1.3,1.03,2.77,1.79,4.36,2.25,1.16.34,2.35.51,3.55.51h0c.5,0,1.01-.03,1.51-.09,1.72-.2,3.34-.73,4.83-1.58,1.44-.82,2.69-1.89,3.72-3.2,1.03-1.3,1.79-2.77,2.25-4.36.48-1.65.62-3.35.42-5.07Z" fill="#46f9f0"/><path d="M19.78,19.7c.48,0,.87-.39.87-.87V6.63c0-.48-.39-.87-.87-.87s-.87.39-.87.87v12.21c0,.48.39.87.87.87Z" fill="#46f9f0"/></svg>