<?xml version="1.0" encoding="UTF-8"?><svg id="a" xmlns="http://www.w3.org/2000/svg" width="40" height="40" viewBox="0 0 40 40"><path d="M31.86,8.23l-11.01-3.01c-.1-.03-.2-.03-.29,0l-11.01,3.01c-.24.07-.4.28-.4.53v11.8c0,5.71,10.1,12.79,11.25,13.58.09.06.2.1.31.1s.22-.03.31-.1c1.15-.79,11.25-7.88,11.25-13.58v-11.8c0-.25-.17-.46-.4-.53ZM10.25,20.55v-11.38l10.46-2.86,2.91.8-5.2,12.38h5.21l-5.83,11.28c-3.18-2.61-7.55-6.81-7.55-10.22ZM31.17,20.55c0,4.79-8.66,11.18-10.46,12.46-.49-.34-1.48-1.07-2.66-2.03l11.01-15.39h-5.52l3.48-7.54,4.15,1.13v11.38Z" fill="#46f9f0"/></svg>