<?xml version="1.0" encoding="UTF-8"?><svg id="a" xmlns="http://www.w3.org/2000/svg" width="40" height="40" viewBox="0 0 40 40"><path d="M33.3,27.23H7.16c-2.16,0-3.93-1.77-3.95-3.92v-1.83c.02-2.15,1.79-3.91,3.93-3.93h26.15c1.05,0,2.04.41,2.79,1.15.75.74,1.16,1.74,1.17,2.79v1.8h0c-.02,2.17-1.79,3.93-3.96,3.93ZM7.15,18.22c-1.78.01-3.25,1.48-3.27,3.26v1.82c.01,1.79,1.49,3.26,3.28,3.26h26.14c1.8,0,3.27-1.46,3.29-3.26v-1.79c0-.89-.35-1.71-.97-2.33-.62-.62-1.44-.96-2.32-.96H7.15Z" fill="#46f9f0"/><path d="M8.57,24.45c-1.09,0-1.96-.88-1.96-1.95.02-1.07.87-1.92,1.94-1.93.53,0,1.02.2,1.39.56.37.37.58.86.58,1.38h0c0,1.1-.85,1.94-1.94,1.94h0ZM8.56,21.23h0c-.71,0-1.27.57-1.28,1.27,0,.7.58,1.28,1.28,1.28.73,0,1.3-.56,1.3-1.27h0c0-.36-.14-.68-.38-.92-.24-.24-.56-.37-.91-.37Z" fill="#46f9f0"/><path d="M33.12,16.89h-.67v-7.91c0-.17-.04-.31-.13-.43-.1-.11-.23-.18-.38-.19-.32-.05-.6.17-.64.46,0,.02,0,.08-.01.1,0,.02,0,.02,0,.05v7.91h-.67v-7.87c0-.07,0-.14,0-.2,0-.02,0-.05,0-.07.09-.66.71-1.12,1.37-1.03.31.02.61.17.82.41.21.25.32.56.3.89v7.88h0Z" fill="#46f9f0"/><path d="M27.4,21.02c.23.28.28.64.16.96-.07.19-.03.41.1.56h0c.14.17.35.24.56.18.57-.15,1.22.11,1.48.74.18.41.1.9-.18,1.25-.53.65-1.5.61-1.97-.02-.29-.39-.33-.89-.13-1.29.09-.19.06-.42-.08-.58h0c-.14-.17-.35-.24-.55-.21-.19.03-.38,0-.55-.07-.14-.06-.31-.04-.43.06l-.02.02c-.1.08-.15.2-.15.32,0,.2-.09.41-.27.54-.28.19-.66.13-.86-.13-.22-.29-.16-.7.13-.91.16-.11.36-.14.54-.1.13.04.27,0,.37-.08h0c.11-.1.17-.26.13-.41-.09-.38.05-.79.39-1.03.42-.3,1.01-.22,1.33.18h0Z" fill="#46f9f0"/><path d="M30.97,23.99c-.23-.28-.28-.64-.16-.96.07-.19.03-.41-.1-.56h0c-.14-.17-.35-.24-.56-.18-.57.15-1.22-.11-1.48-.74-.18-.41-.1-.9.18-1.25.53-.65,1.5-.61,1.97.02.29.39.33.89.13,1.29-.09.19-.06.42.08.58h0c.14.17.35.24.55.21.19-.03.38,0,.55.07.14.06.31.04.43-.06l.02-.02c.1-.08.15-.2.15-.32,0-.2.09-.41.27-.54.28-.19.66-.13.86.13.22.29.16.7-.13.91-.16.11-.36.14-.54.1-.13-.04-.27,0-.37.08h0c-.11.1-.17.26-.13.41.09.38-.05.79-.39,1.03-.42.3-1.01.22-1.33-.18h0Z" fill="#46f9f0"/></svg>