<?xml version="1.0" encoding="utf-8"?>
<!-- Generator: Adobe Illustrator 27.3.0, SVG Export Plug-In . SVG Version: 6.00 Build 0)  -->
<svg version="1.1" id="Layer_1" xmlns="http://www.w3.org/2000/svg" xmlns:xlink="http://www.w3.org/1999/xlink" x="0px" y="0px"
	 viewBox="0 0 637.3 121.2" style="enable-background:new 0 0 637.3 121.2;" xml:space="preserve">
<style type="text/css">
	.st0{fill:#565F5F;}
	.st1{fill:#00AFAA;}
</style>
<path class="st0" d="M355.3,61.4l-17.8-16.2c-3.8-3.4-9.9-0.8-9.9,4.4V86c0,2.6,2.1,4.6,4.6,4.6l0,0c2.6,0,4.6-2.1,4.6-4.6V57.3
	l14.6,13c2.1,1.9,5.2,1.9,7.4,0l15-13v29.1c0,1.4,0.7,2.7,1.9,3.4c3.6,2.1,7.3-0.4,7.3-3.9V49.5c0-5.2-6.1-7.8-9.9-4.4L355.3,61.4
	L355.3,61.4z"/>
<path class="st0" d="M241.5,65.8c-2.7-3-6.6-4.9-11-4.9h-23.9c-2.4,0-4.3-1.9-4.3-4.3v-0.3c0-2.4,1.9-4.3,4.3-4.3h32.3
	c1.9,0,3.5-1.6,3.5-3.5v-1.4c0-1.9-1.6-3.5-3.5-3.5h-32.3c-7,0-12.7,5.7-12.7,12.7v0.3c0,2.7,0.8,5.2,2.3,7.2c0.5,0.7,1,1.4,1.6,1.9
	c2.3,2.2,5.4,3.6,8.8,3.6h23.7c3.1,0,5.9,2.1,6.6,5.1c0.8,4.2-2.4,7.8-6.4,7.8h-31.2c-1.9,0-3.5,1.6-3.5,3.5v1.4
	c0,1.9,1.6,3.5,3.5,3.5H230c7.6,0,14.3-5.4,15.2-12.9c0.6-4.3-0.8-8.3-3.2-11.3C241.9,66.1,241.7,65.9,241.5,65.8L241.5,65.8z"/>
<path class="st0" d="M519.4,68.2c0.5,8,7.6,14.1,15.7,14.1h17.6c1.9,0,3.5,1.6,3.5,3.5v1.4c0,1.9-1.6,3.5-3.5,3.5h-17.4
	c-12.7,0-23.6-9.7-24.2-22.4c-0.6-13.5,10.1-24.6,23.5-24.6h18.1c1.9,0,3.5,1.6,3.5,3.5v1.4c0,1.9-1.6,3.5-3.5,3.5h-18.1
	C525.8,51.9,518.8,59.3,519.4,68.2L519.4,68.2z"/>
<path class="st0" d="M271.4,56.3v4.4H306c1.9,0,3.5,1.6,3.5,3.5v1.4c0,1.9-1.6,3.5-3.5,3.5h-34.7V78c0,2.4,1.9,4.3,4.3,4.3h30.8
	c1.9,0,3.5,1.6,3.5,3.5v1.4c0,1.9-1.6,3.5-3.5,3.5h-30.9c-7,0-12.7-5.7-12.7-12.7V56.2c0-7,5.7-12.7,12.7-12.7h30.9
	c1.9,0,3.5,1.6,3.5,3.5v1.4c0,1.9-1.6,3.5-3.5,3.5h-30.9c-2.4,0-4.3,1.9-4.3,4.3L271.4,56.3z"/>
<path class="st0" d="M458.5,56.3v4.4h34.7c1.9,0,3.5,1.6,3.5,3.5v1.4c0,1.9-1.6,3.5-3.5,3.5h-34.7V78c0,2.4,1.9,4.3,4.3,4.3h30.8
	c1.9,0,3.5,1.6,3.5,3.5v1.4c0,1.9-1.6,3.5-3.5,3.5h-30.9c-7,0-12.7-5.7-12.7-12.7V56.2c0-7,5.7-12.7,12.7-12.7h30.9
	c1.9,0,3.5,1.6,3.5,3.5v1.4c0,1.9-1.6,3.5-3.5,3.5h-30.9c-2.4,0-4.3,1.9-4.3,4.3L458.5,56.3z"/>
<path class="st0" d="M616.6,47.1v40c0,1.9-1.6,3.5-3.5,3.5h-1.4c-1.9,0-3.5-1.6-3.5-3.5V69h-28.3v18.1c0,1.9-1.6,3.5-3.5,3.5H575
	c-1.9,0-3.5-1.6-3.5-3.5v-40c0-1.9,1.6-3.5,3.5-3.5h1.4c1.9,0,3.5,1.6,3.5,3.5v13.6h28.3V47.1c0-1.9,1.6-3.5,3.5-3.5h1.4
	C615.1,43.6,616.6,45.2,616.6,47.1z"/>
<path class="st0" d="M439.8,47.1v1.4c0,1.9-1.6,3.5-3.5,3.5h-15.8v35.1c0,1.9-1.6,3.5-3.5,3.5h-1.4c-1.9,0-3.5-1.6-3.5-3.5V52h-15.8
	c-1.9,0-3.5-1.6-3.5-3.5v-1.4c0-1.9,1.6-3.5,3.5-3.5h40.1C438.2,43.6,439.8,45.2,439.8,47.1z"/>
<path class="st1" d="M56.2,35.3c3.9,4.8,4.7,11,2.8,16.4c-1.2,3.3-0.5,7,1.8,9.6l0.2,0.2c2.3,2.8,6,3.9,9.6,2.9
	c9.8-2.6,20.8,1.9,25.3,12.6c3,7.1,1.8,15.3-3.1,21.3C83.5,109.6,67.2,108.7,59,98c-5-6.6-5.6-15.1-2.3-22.1c1.6-3.3,1-7.1-1.3-9.9
	l-0.1-0.1c-2.3-2.7-5.8-4-9.3-3.4c-3.2,0.5-6.4,0.1-9.4-1.2c-2.4-1.1-5.3-0.7-7.3,1l-0.5,0.4c-1.6,1.4-2.6,3.4-2.5,5.5
	c0.1,3.5-1.5,7-4.6,9.2c-4.7,3.3-11.2,2.3-14.8-2.2c-3.8-4.9-2.7-11.9,2.3-15.4c2.8-2,6.2-2.5,9.2-1.6c2.2,0.6,4.6,0.1,6.3-1.4l0,0
	c2-1.7,2.9-4.4,2.3-6.9c-1.6-6.5,0.8-13.5,6.6-17.7C40.8,27.1,50.7,28.5,56.2,35.3L56.2,35.3z"/>
<path class="st1" d="M117.2,86c-3.9-4.8-4.7-11-2.8-16.4c1.2-3.3,0.5-7-1.8-9.6l-0.2-0.2c-2.3-2.8-6-3.9-9.6-2.9
	C93,59.5,82,55,77.5,44.3c-3-7.1-1.8-15.3,3.1-21.3c9.2-11.2,25.5-10.4,33.7,0.4c5,6.6,5.6,15.1,2.3,22.1c-1.6,3.3-1,7.1,1.3,9.9
	l0.1,0.1c2.3,2.7,5.8,4,9.3,3.4c3.2-0.5,6.4-0.1,9.4,1.2c2.4,1.1,5.3,0.7,7.3-1l0.5-0.4c1.6-1.4,2.6-3.4,2.5-5.5
	c-0.1-3.5,1.5-7,4.6-9.2c4.7-3.3,11.2-2.3,14.8,2.2c3.8,4.9,2.7,11.9-2.3,15.4c-2.8,2-6.2,2.5-9.2,1.6c-2.2-0.6-4.6-0.1-6.3,1.4l0,0
	c-2,1.7-2.9,4.4-2.3,6.9c1.6,6.5-0.8,13.5-6.6,17.7C132.7,94.2,122.7,92.8,117.2,86L117.2,86z"/>
<path class="st0" d="M633.5,49.2c0,3.1-2.4,5.6-5.6,5.6s-5.7-2.4-5.7-5.6c0-3.1,2.5-5.5,5.7-5.5S633.5,46.1,633.5,49.2z M623.6,49.2
	c0,2.4,1.8,4.4,4.3,4.4s4.2-1.9,4.2-4.4c0-2.4-1.8-4.4-4.2-4.4S623.6,46.8,623.6,49.2z M627,52h-1.3v-5.5c0.5-0.1,1.2-0.2,2.1-0.2
	c1,0,1.5,0.2,1.9,0.4c0.3,0.2,0.5,0.7,0.5,1.2c0,0.6-0.5,1.1-1.1,1.3v0.1c0.5,0.2,0.8,0.6,1,1.3c0.2,0.8,0.3,1.2,0.4,1.4h-1.4
	c-0.2-0.2-0.3-0.7-0.4-1.3c-0.1-0.6-0.4-0.9-1.1-0.9H627V52L627,52z M627,48.9h0.6c0.7,0,1.3-0.2,1.3-0.8c0-0.5-0.4-0.8-1.2-0.8
	c-0.3,0-0.6,0-0.7,0.1L627,48.9L627,48.9z"/>
</svg>
