<?xml version="1.0" encoding="UTF-8"?><svg id="a" xmlns="http://www.w3.org/2000/svg" width="40" height="40" viewBox="0 0 40 40"><path d="M29.27,19.84v-.12c.15-.33.54-1.17.54-1.17l.05-.11c1.68-3.58,3.42-7.28,5.53-8.69v-.95c-2.63,1.76-4.74,6.03-6.68,10.26l-.12.27-.13-.27c-2.53-5.47-5.14-11.12-8.56-11.12h-.03c-3.41,0-6.03,5.65-8.56,11.12l-.13.27-.12-.27c-1.94-4.23-4.05-8.5-6.68-10.26v.95c2.11,1.4,3.85,5.1,5.53,8.68l.05.11s.39.84.54,1.17v.12c-2,4.32-3.85,8.03-6.12,9.53v1.37c2.63-1.76,4.74-6.02,6.68-10.26l.12-.27.13.27c2.53,5.47,5.14,11.12,8.56,11.12h.03c3.41,0,6.02-5.65,8.56-11.12l.13-.27.12.27c1.94,4.23,4.05,8.5,6.68,10.26v-1.37c-2.28-1.5-4.12-5.21-6.12-9.53ZM27.79,19.84c-2.37,5.21-4.83,10.6-7.9,10.6s-5.53-5.39-7.9-10.6l-.02-.06.23-.5c2.32-5.11,4.73-10.39,7.7-10.39s5.37,5.28,7.7,10.39l.23.5-.02.06Z" fill="#46f9f0"/><polygon points="4.44 22.03 4.44 18.01 3.82 18.01 2.51 18.88 2.82 19.38 3.76 18.78 3.76 22.03 4.44 22.03" fill="#46f9f0"/><path d="M8.6,20.04c0-.75-.12-1.29-.38-1.61-.25-.32-.63-.49-1.14-.49s-.89.16-1.14.49c-.25.33-.38.86-.38,1.61s.13,1.28.38,1.59c.25.31.63.46,1.14.46.51,0,.88-.16,1.14-.47.25-.31.38-.84.38-1.59ZM7.71,21.18c-.13.21-.34.32-.62.32s-.5-.11-.63-.32c-.13-.21-.2-.6-.2-1.15s.06-.94.19-1.17h0c.13-.22.34-.33.63-.33s.5.11.63.33c.13.22.19.61.19,1.17s-.06.94-.19,1.15Z" fill="#46f9f0"/><polygon points="7.09 22.09 7.08 22.09 7.08 22.09 7.09 22.09" fill="#46f9f0"/><polygon points="32.99 22.03 32.99 18.01 32.36 18.01 31.05 18.88 31.37 19.38 32.31 18.78 32.31 22.03 32.99 22.03" fill="#46f9f0"/><path d="M36.78,18.43h0c-.25-.32-.63-.49-1.14-.49s-.89.16-1.14.49c-.25.33-.38.86-.38,1.61s.13,1.28.38,1.59c.25.31.63.46,1.14.46s.89-.16,1.14-.47c.25-.31.38-.84.38-1.59s-.12-1.29-.38-1.61ZM36.26,21.19h0c-.13.21-.34.32-.62.32s-.5-.11-.63-.32c-.13-.21-.2-.6-.2-1.15s.06-.94.19-1.17.34-.33.63-.33.5.11.63.33c.13.22.19.61.19,1.17s-.06.94-.19,1.15Z" fill="#46f9f0"/><polygon points="13.42 18.88 13.73 19.38 14.68 18.78 14.68 22.03 15.35 22.03 15.35 18.01 14.73 18.01 13.42 18.88" fill="#46f9f0"/><path d="M18.01,17.94h0c-.51,0-.89.16-1.14.49-.25.33-.38.86-.38,1.61s.13,1.28.38,1.59c.25.31.63.46,1.14.46s.89-.16,1.14-.47c.25-.31.38-.84.38-1.59s-.12-1.29-.38-1.61c-.25-.32-.63-.49-1.14-.49ZM18.63,21.19h0c-.13.21-.34.32-.62.32s-.5-.11-.63-.32c-.13-.21-.2-.6-.2-1.15s.06-.94.19-1.17c.13-.22.34-.33.63-.33s.5.11.63.33c.13.22.19.61.19,1.17s-.06.94-.19,1.15Z" fill="#46f9f0"/><polygon points="20.24 18.88 20.55 19.38 21.5 18.78 21.5 22.03 22.18 22.03 22.18 18.01 21.55 18.01 20.24 18.88" fill="#46f9f0"/><path d="M24.83,17.94h0c-.51,0-.89.16-1.14.49-.25.33-.38.86-.38,1.61s.13,1.28.38,1.59c.25.31.63.46,1.14.46s.89-.16,1.14-.47c.25-.31.38-.84.38-1.59s-.12-1.29-.38-1.61c-.25-.32-.63-.49-1.14-.49ZM25.45,21.19h0c-.13.21-.34.32-.62.32s-.5-.11-.63-.32c-.13-.21-.2-.6-.2-1.15s.06-.94.19-1.17.34-.33.63-.33.5.11.63.33c.13.22.19.61.19,1.17s-.06.94-.19,1.15Z" fill="#46f9f0"/></svg>