<?xml version="1.0" encoding="UTF-8"?><svg id="a" xmlns="http://www.w3.org/2000/svg" width="40" height="40" viewBox="0 0 40 40"><path d="M16.23,10.47c-.78,0-1.44.65-1.41,1.44v16.34c0,1.73,1.41,3.1,3.1,3.14h7.81c1.73,0,3.1-1.41,3.1-3.14h0v-8.2c0-.78-.62-1.44-1.41-1.44s-1.44.62-1.44,1.41h0v.88c.03.23-.16.46-.39.49s-.46-.16-.49-.39v-.95c0-.78-.62-1.44-1.44-1.44s-1.44.62-1.44,1.44v.88c.03.23-.16.46-.39.49s-.46-.16-.49-.39v-.98c0-.78-.62-1.44-1.41-1.44s-1.44.62-1.44,1.41h0v.88c.03.23-.16.46-.39.49s-.46-.16-.49-.39v-9.08c.03-.78-.62-1.44-1.41-1.44h0ZM16.23,9.59c1.27,0,2.32,1.04,2.32,2.32v6.3c.98-.78,2.42-.62,3.2.36.03.03.03.07.07.1.72-1.04,2.16-1.27,3.2-.52.2.16.39.33.52.52.75-1.04,2.19-1.27,3.23-.52.59.42.95,1.14.95,1.86v8.2c0,2.22-1.8,4.02-3.99,4.02h-7.81c-2.22,0-3.99-1.8-3.99-4.02V11.88c0-1.24,1.01-2.29,2.29-2.29h0ZM10.51,7.04c.13,0,.23.03.33.1.2.16.23.42.07.62-.92,1.18-1.44,2.65-1.44,4.15,0,2.38,1.27,4.61,3.33,5.85.2.13.3.39.16.62-.07.13-.23.2-.36.23-.07,0-.16-.03-.23-.07-2.35-1.37-3.79-3.89-3.76-6.63,0-1.7.55-3.37,1.6-4.71.07-.1.2-.16.3-.16h0ZM16.23,6.91c2.75,0,5,2.25,4.97,5,0,1.04-.36,2.09-.98,2.94-.13.2-.42.26-.62.13s-.26-.42-.13-.62l.03-.03c1.34-1.83.95-4.38-.85-5.72s-4.38-.95-5.72.85c-1.08,1.44-1.08,3.4,0,4.87.13.2.1.49-.1.62s-.49.1-.62-.1c-1.63-2.22-1.18-5.33,1.04-6.99.88-.59,1.93-.95,2.97-.95h0ZM16.23,4.27c4.25,0,7.64,3.46,7.64,7.68,0,1.89-.72,3.72-1.99,5.13-.1.1-.2.16-.33.13-.1,0-.23-.03-.3-.1-.16-.16-.2-.46-.03-.62,2.52-2.78,2.32-7.06-.46-9.57-1.24-1.14-2.88-1.76-4.54-1.76-1.5,0-2.97.49-4.15,1.44-.2.16-.46.13-.62-.07s-.13-.46.07-.62h0c1.37-1.08,3-1.66,4.71-1.63h0Z" fill="#46f9f0"/></svg>