<?xml version="1.0" encoding="UTF-8"?><svg id="a" xmlns="http://www.w3.org/2000/svg" width="40" height="40" viewBox="0 0 40 40"><g id="b"><path id="c" d="M20.46,6.96c3.69,0,7.3,1.07,10.38,3.1l1.38-1.93c-7.03-4.65-16.14-4.71-23.23-.17l1.38,1.94c3.02-1.92,6.53-2.94,10.11-2.94h0Z" fill="#46f9f0"/><path id="d" d="M11.68,11.56l1.09,1.57c4.79-3.05,10.92-2.99,15.64.16l1.1-1.56c-5.38-3.61-12.39-3.67-17.83-.16Z" fill="#46f9f0"/><path id="e" d="M20.48,14.98c1.99,0,3.94.58,5.61,1.67l.81-1.17c-3.8-2.52-8.73-2.58-12.6-.16l.81,1.17c1.61-.99,3.47-1.52,5.37-1.52Z" fill="#46f9f0"/><path id="f" d="M20.74,33.86c-3.69,0-7.3-1.07-10.37-3.1l-1.38,1.93c7.03,4.65,16.14,4.71,23.24.17l-1.38-1.94c-3.02,1.92-6.53,2.94-10.11,2.94h0Z" fill="#46f9f0"/><path id="g" d="M29.52,29.26l-1.09-1.57c-4.79,3.05-10.92,2.98-15.64-.16l-1.09,1.57c5.38,3.61,12.39,3.67,17.83.17h0Z" fill="#46f9f0"/><path id="h" d="M20.72,25.84c-1.99,0-3.94-.58-5.6-1.67l-.81,1.17c3.81,2.52,8.73,2.58,12.6.16l-.81-1.17c-1.61.99-3.47,1.52-5.37,1.52h0Z" fill="#46f9f0"/><circle id="i" cx="20.6" cy="20.34" r="2.64" fill="#46f9f0"/></g></svg>